<svg height="200px" width="200px" version="1.1" id="Layer_1" xmlns="http://www.w3.org/2000/svg" xmlns:xlink="http://www.w3.org/1999/xlink" viewBox="0 0 512.016 512.016" xml:space="preserve" fill="#000000"><g id="SVGRepo_bgCarrier" stroke-width="0"></g><g id="SVGRepo_tracerCarrier" stroke-linecap="round" stroke-linejoin="round"></g><g id="SVGRepo_iconCarrier"> <path style="fill:#E2E2E2;" d="M256,512.008c141.392,0,256-114.608,256-256s-114.608-256-256-256S0,114.616,0,256.008 S114.608,512.008,256,512.008z"></path> <g> <polygon style="fill:#FFFFFF;" points="453.856,206.296 337.856,267.176 337.856,294.568 453.872,233.656 "></polygon> <polygon style="fill:#FFFFFF;" points="134.464,98.904 40.096,137.272 290.096,242.264 372.864,199.016 "></polygon> <polygon style="fill:#FFFFFF;" points="248.24,52.648 165.952,86.104 400.48,184.584 480.912,142.568 "></polygon> <polygon style="fill:#FFFFFF;" points="279.616,263.88 24,156.536 24,336.168 279.312,458.296 279.616,458.136 "></polygon> </g> <path style="fill:#ee5e11;" d="M512.016,361.608V128.84l-264-102.016L134.608,72.936l-0.624-0.256l-0.256,0.608L0,127.656v223.648 l279.92,133.872L512.016,361.608z M24,336.168V156.536L279.616,263.88v194.256l-0.304,0.16L24,336.168z M337.856,267.176l116-60.88 l0.016,27.36l-116.016,60.912V267.176z M290.096,242.264l-250-104.992l94.368-38.368L372.88,199.016L290.096,242.264z M400.48,184.584l-234.528-98.48l82.288-33.456l232.672,89.92L400.48,184.584z"></path> </g></svg>